<mxfile host="app.diagrams.net" modified="2024-01-15T17:43:50.362Z" agent="Mozilla/5.0 (Windows NT 10.0; Win64; x64) AppleWebKit/537.36 (KHTML, like Gecko) Chrome/120.0.0.0 Safari/537.36" version="22.1.18" etag="6gj7llj6shA4ywX05syN" type="github">
  <diagram name="PÃ¡gina-1" id="4iqZcy0ypr-Ofrr7cWBn">
    <mxGraphModel>
      <root>
        <mxCell id="0" />
        <mxCell id="1" parent="0" />
      </root>
    </mxGraphModel>
  </diagram>
</mxfile>
